<?xml version="1.0" encoding="utf-8"?>
<!-- Generator: Adobe Illustrator 22.1.0, SVG Export Plug-In . SVG Version: 6.00 Build 0)  -->
<svg version="1.1" id="Layer_1" xmlns="http://www.w3.org/2000/svg" xmlns:xlink="http://www.w3.org/1999/xlink" x="0px" y="0px"
	 viewBox="0 0 406.1 393" style="enable-background:new 0 0 406.1 393;" xml:space="preserve">
<style type="text/css">
	.st0{fill:#FEFEFE;}
</style>
<title>back</title>
<desc>Created with Sketch.</desc>
<g>
	<path class="st0" d="M380.3,379.3h-354v-366h354V379.3z M28.3,377.3h350v-362h-350V377.3z"/>
	<path class="st0" d="M329.5,383.6H311v-6.4h18.5V383.6z M313,381.6h14.5v-2.4H313V381.6z"/>
	<path class="st0" d="M93.2,383.6H74.7v-6.4h18.5V383.6z M76.7,381.6h14.5v-2.4H76.7V381.6z"/>
	<path class="st0" d="M402.6,391.6h-21c-1.9,0-3.5-1.6-3.5-3.5V3.5c0-1.9,1.6-3.5,3.5-3.5h21c1.9,0,3.5,1.6,3.5,3.5V388
		C406.1,390,404.5,391.6,402.6,391.6z M381.6,2c-0.8,0-1.5,0.7-1.5,1.5V388c0,0.8,0.7,1.5,1.5,1.5h21c0.8,0,1.5-0.7,1.5-1.5V3.5
		c0-0.8-0.7-1.5-1.5-1.5H381.6z"/>
	<path class="st0" d="M24.5,391.6h-21C1.6,391.6,0,390,0,388V3.5C0,1.6,1.6,0,3.5,0h21c1.9,0,3.5,1.6,3.5,3.5V388
		C28.1,390,26.5,391.6,24.5,391.6z M3.5,2C2.7,2,2,2.7,2,3.5V388c0,0.8,0.7,1.5,1.5,1.5h21c0.8,0,1.5-0.7,1.5-1.5V3.5
		c0-0.8-0.7-1.5-1.5-1.5H3.5z"/>
	<path class="st0" d="M320.3,42.8c-3.4,0-6.2-2.8-6.2-6.1c0-3.4,2.8-6.2,6.2-6.2c3.4,0,6.2,2.8,6.2,6.2
		C326.4,40,323.7,42.8,320.3,42.8z M320.3,32.5c-2.3,0-4.2,1.9-4.2,4.2c0,2.3,1.9,4.1,4.2,4.1c2.3,0,4.2-1.9,4.2-4.1
		C324.4,34.4,322.6,32.5,320.3,32.5z"/>
</g>
</svg>
