<?xml version="1.0" encoding="UTF-8"?>
<svg width="81px" height="81px" viewBox="0 0 81 81" version="1.1" xmlns="http://www.w3.org/2000/svg" xmlns:xlink="http://www.w3.org/1999/xlink">
    <!-- Generator: Sketch 51.1 (57501) - http://www.bohemiancoding.com/sketch -->
    <title>Knob-s</title>
    <desc>Created with Sketch.</desc>
    <defs></defs>
    <g id="Knob-s" stroke="none" stroke-width="1" fill="none" fill-rule="evenodd">
        <g id="knob-sel-copy" transform="translate(13.000000, 7.000000)" stroke="#E8AC5B">
            <path d="M54.7041,39.5269 C54.7041,54.4909 42.5731,66.6219 27.6091,66.6219 C12.6451,66.6219 0.5141,54.4909 0.5141,39.5269 C0.5141,24.5619 12.6451,12.4319 27.6091,12.4319 C42.5731,12.4319 54.7041,24.5619 54.7041,39.5269 Z" id="Stroke-97"></path>
            <path d="M49.8555,40.7476 C48.5635,39.3376 47.6115,37.5826 47.1825,35.5776 C46.7545,33.5746 46.9055,31.5866 47.5055,29.7726 C46.2165,27.2096 44.4385,24.9036 42.2605,22.9996 C40.3525,23.1296 38.3885,22.7796 36.5535,21.8646 C34.7215,20.9506 33.2615,19.5946 32.2175,17.9956 C29.3125,17.3816 26.4135,17.3656 23.6505,17.8706 C22.5635,19.4426 21.0645,20.7616 19.2055,21.6256 C17.3445,22.4896 15.3705,22.7846 13.4655,22.6016 C11.2745,24.4076 9.4175,26.6426 8.0355,29.2166 C8.5875,31.0496 8.6855,33.0456 8.2015,35.0396 C7.7165,37.0346 6.7145,38.7636 5.3835,40.1386 C5.4315,43.0606 6.0575,45.8966 7.1755,48.5076 C8.9525,49.2186 10.5715,50.3856 11.8285,52.0066 C13.0845,53.6276 13.8115,55.4856 14.0575,57.3826 C16.2815,59.0976 18.8645,60.4126 21.7275,61.1996 C23.3885,60.2576 25.3075,59.7216 27.3555,59.7496 C29.4045,59.7776 31.3115,60.3686 32.9465,61.3576 C35.7555,60.6646 38.3935,59.4316 40.7135,57.7446 C41.0125,55.8566 41.7905,54.0206 43.0895,52.4376 C44.3895,50.8516 46.0405,49.7296 47.8345,49.0686 C48.4245,47.7856 48.9035,46.4306 49.2495,45.0066 C49.5945,43.5826 49.7915,42.1586 49.8555,40.7476 Z" id="Stroke-99"></path>
            <path d="M42.4019,43.1177 C40.4179,51.2877 32.1879,56.3027 24.0179,54.3187 C15.8479,52.3357 10.8339,44.1047 12.8169,35.9347 C14.7999,27.7647 23.0309,22.7507 31.2009,24.7337 C39.3709,26.7187 44.3849,34.9487 42.4019,43.1177 Z" id="Stroke-101"></path>
            <path d="M28.2979,12.4488 C28.0689,12.4428 27.8399,12.4318 27.6099,12.4318 C27.3789,12.4318 27.1509,12.4428 26.9209,12.4488 L26.9209,30.1218 L28.2979,30.1218 L28.2979,12.4488 Z" id="Stroke-103"></path>
            <path d="M27.6094,0.3248 C29.8684,0.3248 31.7004,2.1568 31.7004,4.4158 C31.7004,6.6758 29.8684,8.5068 27.6094,8.5068 C25.3504,8.5068 23.5184,6.6758 23.5184,4.4158 C23.5184,2.1568 25.3504,0.3248 27.6094,0.3248 Z" id="Stroke-105"></path>
        </g>
    </g>
</svg>