<?xml version="1.0" encoding="UTF-8"?>
<svg width="69px" height="83px" viewBox="0 0 69 83" version="1.1" xmlns="http://www.w3.org/2000/svg" xmlns:xlink="http://www.w3.org/1999/xlink">
    <!-- Generator: Sketch 50.2 (55047) - http://www.bohemiancoding.com/sketch -->
    <title>knob-sel</title>
    <desc>Created with Sketch.</desc>
    <defs></defs>
    <g id="knob-sel" stroke="none" stroke-width="1" fill="none" fill-rule="evenodd">
        <path d="M61.7041,47.5269 C61.7041,62.4909 49.5731,74.6219 34.6091,74.6219 C19.6451,74.6219 7.5141,62.4909 7.5141,47.5269 C7.5141,32.5619 19.6451,20.4319 34.6091,20.4319 C49.5731,20.4319 61.7041,32.5619 61.7041,47.5269 Z" id="Stroke-97" stroke="#E8AC5B"></path>
        <path d="M56.8555,48.7476 C55.5635,47.3376 54.6115,45.5826 54.1825,43.5776 C53.7545,41.5746 53.9055,39.5866 54.5055,37.7726 C53.2165,35.2096 51.4385,32.9036 49.2605,30.9996 C47.3525,31.1296 45.3885,30.7796 43.5535,29.8646 C41.7215,28.9506 40.2615,27.5946 39.2175,25.9956 C36.3125,25.3816 33.4135,25.3656 30.6505,25.8706 C29.5635,27.4426 28.0645,28.7616 26.2055,29.6256 C24.3445,30.4896 22.3705,30.7846 20.4655,30.6016 C18.2745,32.4076 16.4175,34.6426 15.0355,37.2166 C15.5875,39.0496 15.6855,41.0456 15.2015,43.0396 C14.7165,45.0346 13.7145,46.7636 12.3835,48.1386 C12.4315,51.0606 13.0575,53.8966 14.1755,56.5076 C15.9525,57.2186 17.5715,58.3856 18.8285,60.0066 C20.0845,61.6276 20.8115,63.4856 21.0575,65.3826 C23.2815,67.0976 25.8645,68.4126 28.7275,69.1996 C30.3885,68.2576 32.3075,67.7216 34.3555,67.7496 C36.4045,67.7776 38.3115,68.3686 39.9465,69.3576 C42.7555,68.6646 45.3935,67.4316 47.7135,65.7446 C48.0125,63.8566 48.7905,62.0206 50.0895,60.4376 C51.3895,58.8516 53.0405,57.7296 54.8345,57.0686 C55.4245,55.7856 55.9035,54.4306 56.2495,53.0066 C56.5945,51.5826 56.7915,50.1586 56.8555,48.7476 Z" id="Stroke-99" stroke="#E8AC5B"></path>
        <path d="M49.4019,51.1177 C47.4179,59.2877 39.1879,64.3027 31.0179,62.3187 C22.8479,60.3357 17.8339,52.1047 19.8169,43.9347 C21.7999,35.7647 30.0309,30.7507 38.2009,32.7337 C46.3709,34.7187 51.3849,42.9487 49.4019,51.1177 Z" id="Stroke-101" stroke="#E8AC5B"></path>
        <path d="M35.2979,20.4488 C35.0689,20.4428 34.8399,20.4318 34.6099,20.4318 C34.3789,20.4318 34.1509,20.4428 33.9209,20.4488 L33.9209,38.1218 L35.2979,38.1218 L35.2979,20.4488 Z" id="Stroke-103" stroke="#E8AC5B"></path>
        <path d="M34.6094,8.3248 C36.8684,8.3248 38.7004,10.1568 38.7004,12.4158 C38.7004,14.6758 36.8684,16.5068 34.6094,16.5068 C32.3504,16.5068 30.5184,14.6758 30.5184,12.4158 C30.5184,10.1568 32.3504,8.3248 34.6094,8.3248 Z" id="Stroke-105" stroke="#E8AC5B"></path>
        <path d="M61.3384,81.3658 L7.8804,81.3658 C4.2774,81.3658 1.3574,78.4448 1.3574,74.8438 L1.3574,8.1038 C1.3574,4.5018 4.2774,1.5818 7.8804,1.5818 L61.3384,1.5818 C64.9414,1.5818 67.8604,4.5018 67.8604,8.1038 L67.8604,74.8438 C67.8604,78.4448 64.9414,81.3658 61.3384,81.3658 Z" id="Stroke-144" stroke="#E8AC5B" stroke-width="2"></path>
    </g>
</svg>