<?xml version="1.0" encoding="UTF-8"?>
<svg width="81px" height="81px" viewBox="0 0 81 81" version="1.1" xmlns="http://www.w3.org/2000/svg" xmlns:xlink="http://www.w3.org/1999/xlink">
    <!-- Generator: Sketch 51.1 (57501) - http://www.bohemiancoding.com/sketch -->
    <title>Knob-w-animation</title>
    <desc>Created with Sketch.</desc>
    <defs></defs>
    <g id="Knob-w-animation" stroke="none" stroke-width="1" fill="none" fill-rule="evenodd">
        <g id="Group" transform="translate(17.000000, 14.000000)" stroke="#FFFFFF">
            <path d="M44.8399,28.7476 C43.5479,27.3376 42.5959,25.5826 42.1669,23.5776 C41.7389,21.5746 41.8899,19.5866 42.4899,17.7726 C41.2009,15.2096 39.4229,12.9036 37.2449,10.9996 C35.3369,11.1296 33.3729,10.7796 31.5379,9.8646 C29.7059,8.9506 28.2459,7.5946 27.2019,5.9956 C24.2969,5.3816 21.3979,5.3656 18.6349,5.8706 C17.5479,7.4426 16.0489,8.7616 14.1899,9.6256 C12.3289,10.4896 10.3549,10.7846 8.4499,10.6016 C6.2589,12.4076 4.4019,14.6426 3.0199,17.2166 C3.5719,19.0496 3.6699,21.0456 3.1859,23.0396 C2.7009,25.0346 1.6989,26.7636 0.3679,28.1386 C0.4159,31.0606 1.0419,33.8966 2.1609,36.5076 C3.9369,37.2186 5.5559,38.3856 6.8129,40.0066 C8.0689,41.6276 8.7959,43.4856 9.0419,45.3826 C11.2659,47.0976 13.8489,48.4126 16.7119,49.1996 C18.3729,48.2576 20.2919,47.7216 22.3399,47.7496 C24.3889,47.7776 26.2959,48.3686 27.9309,49.3576 C30.7399,48.6646 33.3779,47.4316 35.6979,45.7446 C35.9969,43.8566 36.7749,42.0206 38.0739,40.4376 C39.3739,38.8516 41.0249,37.7296 42.8189,37.0686 C43.4089,35.7856 43.8879,34.4306 44.2339,33.0066 C44.5799,31.5826 44.7759,30.1586 44.8399,28.7476 Z" id="Stroke-121"></path>
            <path d="M23.2823,0.4488 C23.0533,0.4428 22.8243,0.4318 22.5943,0.4318 C22.3633,0.4318 22.1353,0.4428 21.9053,0.4488 L21.9053,18.1218 L23.2823,18.1218 L23.2823,0.4488 Z" id="Stroke-125"></path>
        </g>
    </g>
</svg>