<?xml version="1.0" encoding="UTF-8"?>
<svg width="81px" height="81px" viewBox="0 0 81 81" version="1.1" xmlns="http://www.w3.org/2000/svg" xmlns:xlink="http://www.w3.org/1999/xlink">
    <!-- Generator: Sketch 51.1 (57501) - http://www.bohemiancoding.com/sketch -->
    <title>Knob-w-back</title>
    <desc>Created with Sketch.</desc>
    <defs></defs>
    <g id="Knob-w-back" stroke="none" stroke-width="1" fill="none" fill-rule="evenodd">
        <path d="M40.5938,7.3248 C42.8528,7.3248 44.6848,9.1568 44.6848,11.4158 C44.6848,13.6758 42.8528,15.5068 40.5938,15.5068 C38.3348,15.5068 36.5028,13.6758 36.5028,11.4158 C36.5028,9.1568 38.3348,7.3248 40.5938,7.3248 Z" id="Stroke-117" stroke="#FFFFFF"></path>
        <path d="M67.6885,46.5269 C67.6885,61.4909 55.5575,73.6219 40.5935,73.6219 C25.6295,73.6219 13.4995,61.4909 13.4995,46.5269 C13.4995,31.5619 25.6295,19.4319 40.5935,19.4319 C55.5575,19.4319 67.6885,31.5619 67.6885,46.5269 Z" id="Stroke-119" stroke="#FFFFFF"></path>
        <path d="M55.3863,50.1177 C53.4023,58.2877 45.1723,63.3027 37.0023,61.3187 C28.8323,59.3357 23.8183,51.1047 25.8013,42.9347 C27.7853,34.7647 36.0153,29.7507 44.1853,31.7337 C52.3553,33.7187 57.3693,41.9487 55.3863,50.1177 Z" id="Stroke-123" stroke="#FFFFFF"></path>
    </g>
</svg>