<?xml version="1.0" encoding="utf-8"?>
<!-- Generator: Adobe Illustrator 22.1.0, SVG Export Plug-In . SVG Version: 6.00 Build 0)  -->
<svg version="1.1" id="Layer_1" xmlns="http://www.w3.org/2000/svg" xmlns:xlink="http://www.w3.org/1999/xlink" x="0px" y="0px"
	 viewBox="0 0 78.5 78.4" style="enable-background:new 0 0 78.5 78.4;" xml:space="preserve">
<style type="text/css">
	.st0{fill:none;stroke:#FFFFFF;stroke-width:1.5;stroke-miterlimit:10;}
	.st1{fill-rule:evenodd;clip-rule:evenodd;fill:none;stroke:#FFFFFF;stroke-width:1.5;stroke-miterlimit:10;}
</style>
<g>
	<circle class="st0" cx="39.2" cy="12.5" r="4"/>
	<g>
		<g>
			<g>
				<circle class="st1" cx="39.2" cy="46.5" r="26.2"/>
			</g>
			<path class="st1" d="M60.8,47.6c-1.3-1.4-2.2-3.1-2.6-5c-0.4-1.9-0.3-3.9,0.3-5.6c-1.2-2.5-3-4.7-5.1-6.6
				c-1.8,0.1-3.7-0.2-5.5-1.1c-1.8-0.9-3.2-2.2-4.2-3.7c-2.8-0.6-5.6-0.6-8.3-0.1c-1.1,1.5-2.5,2.8-4.3,3.6
				c-1.8,0.8-3.7,1.1-5.6,0.9c-2.1,1.7-3.9,3.9-5.3,6.4c0.5,1.8,0.6,3.7,0.2,5.6c-0.5,1.9-1.4,3.6-2.7,4.9c0,2.8,0.7,5.6,1.7,8.1
				c1.7,0.7,3.3,1.8,4.5,3.4c1.2,1.6,1.9,3.4,2.2,5.2c2.2,1.7,4.7,2.9,7.4,3.7C35.1,66.5,37,66,39,66c2,0,3.8,0.6,5.4,1.6
				c2.7-0.7,5.3-1.9,7.5-3.5c0.3-1.8,1-3.6,2.3-5.1c1.3-1.5,2.9-2.6,4.6-3.3c0.6-1.2,1-2.6,1.4-3.9C60.5,50.4,60.7,49,60.8,47.6z"/>
			<circle class="st1" cx="39.2" cy="46.5" r="14.7"/>
			<path class="st1" d="M39.9,20.2c-0.2,0-0.4,0-0.7,0s-0.4,0-0.7,0v17.1h1.3V20.2z"/>
		</g>
	</g>
</g>
<title>button</title>
</svg>
