<?xml version="1.0" encoding="UTF-8"?>
<svg width="169px" height="64px" viewBox="0 0 169 64" version="1.1" xmlns="http://www.w3.org/2000/svg" xmlns:xlink="http://www.w3.org/1999/xlink">
    <!-- Generator: Sketch 50.2 (55047) - http://www.bohemiancoding.com/sketch -->
    <title>Logo-MD1BP</title>
    <desc>Created with Sketch.</desc>
    <defs>
        <polygon id="path-1" points="0 -0.0002 166.0129 -0.0002 166.0129 61.4708 0 61.4708"></polygon>
    </defs>
    <g id="Logo-MD1BP" stroke="none" stroke-width="1" fill="none" fill-rule="evenodd">
        <g id="Group-Copy" transform="translate(1.000000, 1.000000)">
            <mask id="mask-2" fill="white">
                <use xlink:href="#path-1"></use>
            </mask>
            <g id="Clip-2"></g>
            <path d="M106.973,24.5458 L126.765,24.5458 L126.765,20.6308 L106.973,20.6308 L106.973,24.5458 Z M144.638,30.1908 L155.362,30.1908 L155.362,25.4938 L144.638,25.4938 L144.638,30.1908 Z M144.638,35.8348 L155.362,35.8348 L155.362,31.6108 L144.638,31.6108 L144.638,35.8348 Z M60.635,41.4808 L95.519,41.4808 C96.182,40.9058 96.713,40.3658 97.11,39.9168 C97.646,39.2968 98.196,38.5718 98.731,37.7298 L60.635,37.7298 L60.635,41.4808 Z M144.638,41.4808 L155.362,41.4808 L155.362,37.7298 L144.638,37.7298 L144.638,41.4808 Z M95.257,5.0968 C89.564,0.3978 81.753,0.1988 79.767,0.0668 C78.377,-0.0002 76.986,-0.0002 75.53,-0.0002 L60.635,-0.0002 L60.635,24.5458 L72.419,24.5458 L72.419,9.8638 L77.119,9.8638 C79.369,9.8638 81.355,9.7968 83.54,10.5258 C86.055,11.3198 87.445,12.9088 88.108,13.7028 C90.358,16.5488 90.755,19.7928 90.755,23.3678 C90.755,23.7728 90.747,24.1648 90.732,24.5458 L102.441,24.5458 C102.462,24.0348 102.472,23.5088 102.472,22.9708 C102.472,16.0858 100.619,11.9148 98.964,9.3338 C97.507,7.0168 96.117,5.7588 95.257,5.0968 Z M40.51,41.4808 L51.634,41.4808 L51.634,37.7298 L40.602,37.7298 L40.51,41.4808 Z M60.635,46.7358 L78.972,46.7358 C81.62,46.7358 83.871,46.6028 86.453,46.0068 C88.677,45.4908 90.553,44.7088 92.109,43.8478 L60.635,43.8478 L60.635,46.7358 Z M144.638,46.7358 L155.362,46.7358 L155.362,43.8478 L144.638,43.8478 L144.638,46.7358 Z M28.046,24.5458 L37.047,24.5458 L41.307,9.1348 L40.927,24.5458 L51.634,24.5458 L51.634,-0.0002 L34.555,-0.0002 L28.046,24.5458 Z M40.38,46.7358 L51.634,46.7358 L51.634,43.8478 L40.452,43.8478 L40.38,46.7358 Z M17.079,-0.0002 L0,-0.0002 L0,24.5458 L10.839,24.5458 L10.459,9.1348 L14.692,24.5458 L23.688,24.5458 L17.079,-0.0002 Z M20.786,46.7358 L30.914,46.7358 L31.713,43.8478 L19.993,43.8478 L20.786,46.7358 Z M0,43.8478 L0,46.7358 L11.386,46.7358 L11.315,43.8478 L0,43.8478 Z M19.342,41.4808 L32.367,41.4808 L33.403,37.7298 L18.313,37.7298 L19.342,41.4808 Z M40.649,35.8348 L51.634,35.8348 L51.634,31.6118 L40.753,31.6118 L40.649,35.8348 Z M60.636,35.8358 L72.419,35.8358 L72.419,31.6118 L60.636,31.6118 L60.636,35.8358 Z M25.883,32.7018 L25.589,31.6118 L16.632,31.6118 L17.792,35.8348 L33.927,35.8348 L35.095,31.6118 L26.172,31.6118 L25.883,32.7018 Z M106.973,30.0978 L126.765,30.0978 L126.765,25.4938 L106.973,25.4938 L106.973,30.0978 Z M89.746,30.1908 L101.741,30.1908 C102.051,28.7718 102.276,27.2088 102.39,25.4938 L90.675,25.4938 C90.534,27.3418 90.208,28.8918 89.746,30.1908 Z M86.453,34.8858 C85.95,35.2568 85.421,35.5678 84.876,35.8348 L99.794,35.8348 C100.398,34.6178 100.947,33.2168 101.389,31.6118 L89.139,31.6118 C88.403,33.0648 87.471,34.1218 86.453,34.8858 Z M147.286,1.8538 C146.822,2.7138 146.558,3.3098 145.962,4.1038 C145.101,5.2958 144.042,5.9578 143.579,6.2878 C142.454,7.0168 140.666,8.0768 137.621,8.3408 L135.238,8.5388 L135.172,15.3578 C137.091,15.3578 140.336,15.2908 142.189,14.8278 C143.115,14.6298 143.712,14.3648 144.638,13.9678 L144.638,24.5458 L155.362,24.5458 L155.362,1.8538 L147.286,1.8538 Z M60.636,30.1908 L72.419,30.1908 L72.419,25.4938 L60.636,25.4938 L60.636,30.1908 Z M11.013,31.6118 L0,31.6118 L0,35.8348 L11.117,35.8348 L11.013,31.6118 Z M11.164,37.7298 L0,37.7298 L0,41.4808 L11.256,41.4808 L11.164,37.7298 Z M10.862,25.4938 L0,25.4938 L0,30.1908 L10.978,30.1908 L10.862,25.4938 Z M40.788,30.1908 L51.634,30.1908 L51.634,25.4938 L40.904,25.4938 L40.788,30.1908 Z M26.549,30.1908 L35.487,30.1908 L36.786,25.4938 L27.795,25.4938 L26.549,30.1908 Z M23.942,25.4938 L14.952,25.4938 L16.242,30.1908 L25.207,30.1908 L23.942,25.4938 Z" id="Fill-1" fill="#D8D9D1" mask="url(#mask-2)"></path>
            <path d="M82.8605,54.1701 C83.3735,53.6361 83.8885,53.0211 84.4055,52.3231 C84.9235,51.6271 85.6785,50.5651 86.6745,49.1371 C87.6305,47.7671 88.3815,46.6311 88.9295,45.7311 C89.4755,44.8321 89.8875,44.0911 90.1635,43.5101 C90.4395,42.9301 90.5765,42.5411 90.5765,42.3441 C90.5765,42.1961 90.5375,42.1291 90.4595,42.1431 C90.2415,42.1811 89.7915,42.6181 89.1065,43.4521 C88.4215,44.2881 87.6405,45.4041 86.7635,46.8001 C85.5505,48.7291 84.6735,50.1751 84.1315,51.1371 C83.5895,52.1001 83.1665,53.1111 82.8605,54.1701 M90.3705,55.0641 L90.3705,56.0241 C89.3445,56.8561 88.5375,57.3231 87.9455,57.4281 C87.6205,57.4841 87.2755,57.4921 86.9105,57.4471 C86.0245,58.7281 85.2625,59.6851 84.6275,60.3181 C83.9915,60.9531 83.3535,61.3271 82.7135,61.4411 C81.9735,61.5701 81.4045,61.2811 81.0055,60.5731 C80.6065,59.8651 80.4065,58.9351 80.4065,57.7811 C80.4065,56.2141 80.8805,54.4241 81.8255,52.4091 C82.7725,50.3951 83.9125,48.4631 85.2485,46.6171 C86.5835,44.7711 87.8775,43.2091 89.1285,41.9341 C90.3805,40.6581 91.2275,39.9821 91.6715,39.9031 C92.0945,39.8291 92.3065,40.0821 92.3065,40.6631 C92.3065,43.2451 88.9955,48.3331 82.3735,55.9271 C82.3525,56.1081 82.3435,56.4591 82.3435,56.9821 C82.3435,58.3411 82.7075,58.9581 83.4375,58.8291 C83.7225,58.7781 84.0115,58.6111 84.3015,58.3291 C84.5925,58.0461 85.0385,57.5261 85.6395,56.7701 C85.4035,56.2791 85.2855,55.9061 85.2855,55.6491 C85.2855,55.1071 85.5065,54.4821 85.9505,53.7741 C86.3935,53.0651 86.8995,52.4311 87.4655,51.8731 C88.0325,51.3151 88.4435,51.0131 88.6995,50.9681 C89.1035,50.8971 89.3065,51.1511 89.3065,51.7321 C89.3065,52.1761 89.1905,52.7291 88.9585,53.3911 C88.7265,54.0531 88.3895,54.8211 87.9455,55.6981 C88.1135,55.8071 88.2465,55.8851 88.3445,55.9311 C88.4435,55.9781 88.5905,55.9831 88.7885,55.9491 C89.2415,55.8691 89.7695,55.5741 90.3705,55.0641" id="Fill-3" fill="#008DE7" mask="url(#mask-2)"></path>
            <path d="M93.0162,51.7433 C93.5282,51.1513 94.0242,50.4923 94.5012,49.7663 C94.9792,49.0433 95.4312,48.2773 95.8542,47.4733 C96.2782,46.6703 96.6112,45.9563 96.8522,45.3323 C97.0942,44.7083 97.2142,44.2483 97.2142,43.9523 C97.2142,43.7253 97.1352,43.6273 96.9782,43.6543 C96.9192,43.6653 96.8062,43.7383 96.6382,43.8763 C96.0372,44.4753 95.3612,45.5573 94.6132,47.1243 C93.8642,48.6893 93.3312,50.2293 93.0162,51.7433 M97.4362,53.6253 L97.4362,54.7193 C95.3762,57.8123 93.7012,59.4723 92.4102,59.7003 C91.7102,59.8233 91.1612,59.5383 90.7622,58.8453 C90.3632,58.1513 90.1632,57.1833 90.1632,55.9423 C90.1632,54.9363 90.3992,53.7013 90.8722,52.2323 C91.3462,50.7643 91.9782,49.2493 92.7722,47.6843 C93.5652,46.1213 94.3882,44.7343 95.2412,43.5243 C96.0932,42.3143 96.8842,41.4333 97.6132,40.8813 C97.9092,40.6513 98.1412,40.5213 98.3082,40.4923 C98.5162,40.4553 98.6532,40.5233 98.7222,40.6933 C98.7912,40.8633 98.8262,41.1703 98.8262,41.6133 C98.8262,42.9833 98.2682,44.7643 97.1552,46.9563 C96.0412,49.1483 94.4892,51.4593 92.4992,53.8903 C92.4002,54.4193 92.3502,54.8223 92.3502,55.0983 C92.3502,55.7283 92.4862,56.2183 92.7582,56.5643 C93.0282,56.9113 93.4052,57.0413 93.8882,56.9563 C94.1352,56.9123 94.4012,56.7693 94.6872,56.5273 C94.9732,56.2843 95.2732,55.9933 95.5882,55.6513 C95.9032,55.3093 96.5202,54.6353 97.4362,53.6253" id="Fill-4" fill="#008DE7" mask="url(#mask-2)"></path>
            <path d="M104.2657,51.5783 C102.8367,53.7233 101.7497,55.2593 101.0067,56.1893 C100.2617,57.1183 99.6537,57.6253 99.1807,57.7083 C98.8057,57.7743 98.4607,57.6803 98.1457,57.4253 C97.8297,57.1703 97.5867,56.7943 97.4137,56.2973 C97.2417,55.8013 97.1557,55.2523 97.1557,54.6503 C97.1557,54.2573 97.1917,53.8943 97.2657,53.5663 C97.3407,53.2383 97.4807,52.8663 97.6877,52.4503 C97.8947,52.0343 98.1677,51.5743 98.5077,51.0713 C98.8477,50.5673 99.2647,49.9913 99.7567,49.3433 C100.0527,48.9463 100.3017,48.6113 100.5037,48.3393 C100.7047,48.0673 100.9027,47.8723 101.0947,47.7553 C101.2867,47.6373 101.5997,47.5393 102.0337,47.4633 C102.3487,47.4073 102.6497,47.3963 102.9357,47.4303 C103.2217,47.4643 103.3637,47.5243 103.3637,47.6133 C103.3637,47.7913 103.2187,48.1373 102.9277,48.6513 C102.6367,49.1653 102.1687,49.8123 101.5237,50.5913 C100.8777,51.3703 100.1317,52.1543 99.2837,52.9453 C99.0967,53.5583 99.0027,54.0193 99.0027,54.3243 C99.0027,54.7483 99.1657,54.9323 99.4917,54.8743 C99.6097,54.8533 99.8067,54.7183 100.0817,54.4673 C100.3577,54.2173 100.8237,53.7453 101.4787,53.0533 C102.1347,52.3613 102.7237,51.7463 103.2457,51.2113 C103.6297,50.8083 104.0767,50.2293 104.5837,49.4753 C105.0917,48.7213 105.5027,48.1483 105.8177,47.7573 C106.5477,46.8593 107.0447,46.2713 107.3107,45.9933 C107.5777,45.7153 107.8327,45.5543 108.0797,45.5103 C108.3167,45.4693 108.4767,45.5153 108.5597,45.6473 C108.6437,45.7813 108.6857,46.0743 108.6857,46.5273 C108.6857,46.7343 108.6657,46.9053 108.6267,47.0403 C108.5867,47.1763 108.5057,47.3543 108.3827,47.5783 C108.2597,47.8023 108.0107,48.2183 107.6367,48.8253 C107.2617,49.4333 106.8177,50.1523 106.3067,50.9823 C106.0297,51.4263 105.7887,51.8983 105.5807,52.4043 C105.3747,52.9083 105.2707,53.2793 105.2707,53.5153 C105.2707,54.0273 105.4737,54.2483 105.8767,54.1773 C106.2117,54.1183 106.6017,53.9113 107.0447,53.5573 C107.4887,53.2033 108.1687,52.5853 109.0847,51.7043 L109.0847,52.6953 C107.9317,53.9633 107.0787,54.8873 106.5277,55.4673 C105.9757,56.0473 105.4977,56.4963 105.0937,56.8133 C104.6897,57.1323 104.3057,57.3223 103.9407,57.3873 C103.1127,57.5323 102.6987,57.1123 102.6987,56.1273 C102.6987,55.7533 102.8227,55.2253 103.0687,54.5463 C103.3147,53.8683 103.7137,52.8793 104.2657,51.5783" id="Fill-5" fill="#008DE7" mask="url(#mask-2)"></path>
            <path d="M111.4654,50.8859 C112.3524,50.3849 113.1114,49.8229 113.7414,49.1989 C114.3724,48.5739 114.8384,48.0019 115.1384,47.4819 C115.4394,46.9599 115.5894,46.5909 115.5894,46.3739 C115.5894,46.1469 115.4864,46.0519 115.2784,46.0889 C115.1024,46.1189 114.8134,46.2839 114.4144,46.5819 C114.0154,46.8789 113.6114,47.2459 113.2024,47.6829 C112.7934,48.1179 112.4254,48.6129 112.1004,49.1619 C111.7764,49.7119 111.5634,50.2859 111.4654,50.8859 M111.3174,51.8729 L111.3174,52.2419 C111.3174,52.8239 111.4604,53.2519 111.7464,53.5269 C112.0314,53.8019 112.4064,53.8979 112.8694,53.8169 C113.3524,53.7309 113.8524,53.5299 114.3704,53.2119 C114.8874,52.8939 115.4024,52.5019 115.9144,52.0379 C116.4274,51.5729 117.0524,50.9599 117.7924,50.1989 L117.7924,51.1009 C116.6784,52.6379 115.6334,53.8489 114.6584,54.7359 C113.6824,55.6219 112.6924,56.1549 111.6874,56.3309 C110.8094,56.4869 110.1144,56.2689 109.6024,55.6779 C109.0904,55.0889 108.8344,54.2019 108.8344,53.0199 C108.8344,51.9859 109.0754,51.0039 109.5584,50.0759 C110.0414,49.1489 110.8294,48.1199 111.9234,46.9899 C112.6724,46.2179 113.4164,45.6049 114.1554,45.1489 C114.8944,44.6939 115.5544,44.4139 116.1364,44.3119 C116.5994,44.2299 116.9664,44.2719 117.2374,44.4359 C117.5084,44.5999 117.6444,44.8929 117.6444,45.3169 C117.6444,45.9379 117.4124,46.5969 116.9494,47.2949 C116.4864,47.9919 115.7784,48.7279 114.8284,49.5019 C113.8774,50.2759 112.7064,51.0659 111.3174,51.8729" id="Fill-6" fill="#008DE7" mask="url(#mask-2)"></path>
            <path d="M123.2174,51.2082 C124.1934,50.0122 124.9194,49.0112 125.3984,48.2072 C125.8754,47.4032 126.1154,46.8102 126.1154,46.4252 C126.1154,46.0612 125.9324,45.9102 125.5684,45.9752 C125.0754,46.0622 124.3834,46.5902 123.4914,47.5612 C122.5994,48.5312 121.6804,49.7892 120.7344,51.3362 C121.4634,51.1282 121.9504,51.0162 122.1974,50.9962 C122.4444,50.9782 122.7834,51.0492 123.2174,51.2082 M117.2164,51.5422 L117.2164,50.5082 C118.5954,48.7672 119.7854,47.1472 120.7854,45.6492 C121.7854,44.1532 122.5764,42.9642 123.1584,42.0832 C123.7394,41.2022 124.2524,40.5622 124.6964,40.1632 C125.1394,39.7652 125.6964,39.5072 126.3664,39.3892 C126.7014,39.3292 126.8684,39.4282 126.8684,39.6852 C126.8684,39.8922 126.7334,40.2212 126.4624,40.6722 C126.1914,41.1242 125.8434,41.6002 125.4204,42.0982 C124.8584,42.7492 124.3094,43.5382 123.7724,44.4662 C123.2354,45.3942 122.6264,46.5622 121.9464,47.9742 C122.4784,47.4662 123.0924,46.8672 123.7864,46.1782 C124.4814,45.4882 125.0484,44.9452 125.4874,44.5472 C125.9254,44.1492 126.3594,43.8192 126.7874,43.5582 C127.2164,43.2942 127.6474,43.1242 128.0814,43.0482 C128.3574,42.9992 128.5364,43.0182 128.6204,43.1012 C128.7044,43.1842 128.7464,43.3692 128.7464,43.6552 C128.7464,44.4042 128.5634,45.1682 128.1994,45.9472 C127.8344,46.7272 127.3124,47.5602 126.6324,48.4482 C125.9524,49.3362 125.1144,50.3222 124.1194,51.4032 C124.4644,51.4722 124.8194,51.4732 125.1834,51.4082 C126.3264,51.2072 127.8594,50.0642 129.7814,47.9812 L129.7814,49.0462 C129.0324,49.8482 128.3004,50.6072 127.5854,51.3242 C126.8714,52.0432 126.1984,52.6342 125.5684,53.1002 C124.9374,53.5662 124.3554,53.8462 123.8234,53.9392 C123.6264,53.9742 123.4174,53.9892 123.1954,53.9832 C122.9734,53.9792 122.7684,53.9602 122.5814,53.9302 C122.3944,53.8982 122.1534,53.8502 121.8574,53.7842 C121.5624,53.7182 121.3354,53.6742 121.1774,53.6522 C120.8624,53.7862 120.6844,53.8562 120.6454,53.8642 C120.3004,53.9252 119.8964,53.8582 119.4334,53.6642 C119.1084,54.3532 118.7504,55.2302 118.3614,56.3002 C117.9724,57.3682 117.6444,58.2222 117.3784,58.8612 C117.1124,59.4982 116.7574,60.1282 116.3144,60.7482 C116.0684,61.0382 115.8954,61.1912 115.7974,61.2092 C115.3734,61.2832 115.1614,60.9462 115.1614,60.1972 C115.1614,59.5472 115.2924,58.8462 115.5524,58.0962 C115.8144,57.3452 116.1344,56.6212 116.5134,55.9242 C116.8934,55.2262 117.3094,54.5152 117.7624,53.7892 C118.2164,53.0632 118.5364,52.5262 118.7234,52.1792 C120.2804,49.2232 121.4924,46.7292 122.3604,44.6922 C120.0934,47.8522 118.3784,50.1352 117.2164,51.5422" id="Fill-7" fill="#008DE7" mask="url(#mask-2)"></path>
            <path d="M129.5294,49.2678 L129.5294,48.3068 C130.0614,47.5818 130.4654,46.9728 130.7414,46.4818 C130.4254,46.4288 130.1974,46.3358 130.0544,46.2048 C129.9114,46.0718 129.8404,45.8468 129.8404,45.5318 C129.8404,45.1768 129.9874,44.7038 130.2834,44.1088 C130.5794,43.5148 130.9434,42.9428 131.3774,42.3928 C131.8114,41.8438 132.2054,41.4678 132.5604,41.2678 C132.6974,41.1738 132.8304,41.1168 132.9594,41.0938 C133.1554,41.0598 133.2544,41.1358 133.2544,41.3238 C133.2544,41.4908 133.1014,41.8578 132.7964,42.4238 C134.8264,41.7498 136.1084,41.3678 136.6394,41.2738 C136.8474,41.2368 136.9894,41.2308 137.0694,41.2558 C137.2364,41.3158 137.3744,41.4978 137.4834,41.8038 C137.5914,42.1108 137.6454,42.4258 137.6454,42.7508 C137.6454,42.9578 137.5534,43.1998 137.3714,43.4728 C137.1894,43.7458 136.8764,44.1538 136.4334,44.6948 C135.9104,45.3478 135.4724,46.0368 135.1174,46.7598 C134.7624,47.4828 134.5854,48.0118 134.5854,48.3468 C134.5854,48.8098 134.8704,48.9908 135.4424,48.8898 C136.0434,48.7838 137.0884,47.9898 138.5764,46.5038 L138.5764,47.4958 C137.7584,48.4968 137.0834,49.2908 136.5514,49.8768 C136.0194,50.4638 135.5264,50.9428 135.0734,51.3128 C134.6194,51.6838 134.2164,51.8998 133.8614,51.9618 C133.4464,52.0358 133.1014,51.9068 132.8264,51.5768 C132.5504,51.2458 132.4124,50.7208 132.4124,50.0008 C132.4124,49.5778 132.5204,49.0748 132.7374,48.4948 C132.9544,47.9138 133.2724,47.2698 133.6904,46.5598 C134.1094,45.8518 134.5804,45.1348 135.1024,44.4118 C134.8264,44.5198 134.5164,44.6358 134.1714,44.7598 C133.8264,44.8858 133.4624,45.0158 133.0774,45.1538 C132.6934,45.2898 132.3974,45.3968 132.1904,45.4718 C131.5794,46.8018 130.6924,48.0668 129.5294,49.2678" id="Fill-8" fill="#008DE7" mask="url(#mask-2)"></path>
            <path d="M144.5782,38.8674 C144.3322,38.9114 144.0982,38.8584 143.8762,38.7114 C143.6552,38.5624 143.5432,38.3464 143.5432,38.0594 C143.5432,37.6264 143.7502,37.1074 144.1642,36.5024 C144.5782,35.8964 145.0072,35.5544 145.4512,35.4764 C145.7462,35.4244 145.9932,35.4724 146.1892,35.6194 C146.3872,35.7674 146.4852,36.0134 146.4852,36.3584 C146.4852,36.7824 146.2832,37.2854 145.8792,37.8694 C145.4752,38.4534 145.0412,38.7864 144.5782,38.8674 M145.5842,45.2994 L145.5842,46.3784 C144.6272,47.7774 143.7362,48.8634 142.9082,49.6364 C142.0802,50.4074 141.3752,50.8454 140.7942,50.9474 C139.9852,51.0904 139.3842,50.7724 138.9912,49.9944 C138.5962,49.2164 138.3992,48.3244 138.3992,47.3194 C138.3992,46.9344 138.4382,46.5604 138.5172,46.1974 C138.5962,45.8334 138.6892,45.5294 138.7982,45.2824 C138.9072,45.0364 139.1092,44.6464 139.4042,44.1114 C140.8042,41.6864 142.0852,40.3714 143.2472,40.1664 C143.8492,40.0604 144.1502,40.2394 144.1502,40.7034 C144.1502,41.0184 143.9552,41.5454 143.5652,42.2834 C143.1762,43.0224 142.8292,43.5614 142.5232,43.9014 C141.6662,44.8804 141.1072,45.5554 140.8462,45.9274 C140.5842,46.2984 140.4542,46.6904 140.4542,47.1044 C140.4542,47.4594 140.5872,47.7314 140.8532,47.9214 C141.1192,48.1114 141.4642,48.1694 141.8882,48.0944 C142.3512,48.0124 142.8612,47.7524 143.4182,47.3134 C143.9742,46.8754 144.6972,46.2044 145.5842,45.2994" id="Fill-9" fill="#008DE7" mask="url(#mask-2)"></path>
            <path d="M155.4142,40.8898 C153.6802,43.1268 152.8122,44.6248 152.8122,45.3838 C152.8122,45.8078 152.9852,45.9888 153.3302,45.9278 C153.6162,45.8768 153.9872,45.6618 154.4462,45.2818 C154.9042,44.8998 155.6212,44.2378 156.5972,43.2968 L156.5972,44.3178 C155.1972,45.9448 154.1232,47.1288 153.3742,47.8708 C152.6252,48.6148 152.0142,49.0288 151.5412,49.1118 C150.7332,49.2538 150.3292,48.7928 150.3292,47.7288 C150.3292,47.4128 150.3782,47.0938 150.4772,46.7708 C150.5752,46.4498 150.7112,46.1068 150.8832,45.7458 C151.0562,45.3858 151.3192,44.8668 151.6742,44.1878 C152.0292,43.5088 152.4372,42.7398 152.9012,41.8788 C152.3392,42.2648 151.6342,42.9548 150.7872,43.9528 C150.2352,44.5818 149.7672,45.1688 149.3832,45.7148 C148.9982,46.2608 148.5872,46.8658 148.1482,47.5298 C147.7092,48.1938 147.3902,48.6438 147.1872,48.8808 C146.9852,49.1188 146.7812,49.2558 146.5742,49.2918 C146.2582,49.3478 145.9682,49.0688 145.7022,48.4548 C145.4352,47.8418 145.3022,47.0978 145.3022,46.2208 C145.3022,45.6778 145.3642,45.2438 145.4882,44.9158 C145.6112,44.5888 145.8542,44.1128 146.2192,43.4868 C146.8992,42.3218 147.4852,41.4518 147.9782,40.8768 C148.4712,40.3018 148.9442,39.9758 149.3972,39.8958 C149.7132,39.8398 149.9672,39.8488 150.1592,39.9238 C150.3512,39.9978 150.4472,40.1498 150.4472,40.3758 C150.4472,40.4748 150.4172,40.5828 150.3582,40.7028 C150.2992,40.8208 150.2332,40.9308 150.1592,41.0338 C150.0842,41.1338 149.9302,41.3338 149.6932,41.6318 C148.1362,43.6308 147.3582,44.8868 147.3582,45.3998 C147.3582,45.6848 147.4512,45.8128 147.6392,45.7798 C147.7572,45.7578 147.9862,45.5278 148.3262,45.0888 C148.6652,44.6488 149.1042,44.0748 149.6412,43.3638 C150.1782,42.6528 150.8142,41.8978 151.5482,41.0978 C152.2822,40.2978 153.1182,39.5048 154.0542,38.7188 C154.5762,38.2628 155.0102,38.0038 155.3552,37.9428 C155.5132,37.9148 155.6672,38.1048 155.8202,38.5108 C155.9732,38.9188 156.0502,39.3428 156.0502,39.7868 C156.0502,40.0038 155.8382,40.3708 155.4142,40.8898" id="Fill-10" fill="#008DE7" mask="url(#mask-2)"></path>
            <path d="M161.6969,34.7844 L162.3319,34.6734 C162.8549,33.6444 163.3279,32.8984 163.7519,32.4334 C164.1749,31.9714 164.6579,31.6904 165.1999,31.5954 C165.7419,31.4994 166.0129,31.5754 166.0129,31.8214 C166.0129,31.9394 165.8009,32.2974 165.3779,32.8944 C164.9539,33.4914 164.6339,33.9864 164.4169,34.3794 C164.7519,34.3594 165.0499,34.3424 165.3109,34.3254 C165.5719,34.3084 165.7769,34.2984 165.9249,34.2914 C165.3629,35.4334 164.6579,36.6284 163.8109,37.8724 C163.5339,37.9004 163.3029,37.9244 163.1159,37.9424 C162.9289,37.9604 162.7389,37.9784 162.5469,37.9984 C162.3549,38.0174 162.1199,38.0414 161.8449,38.0704 C161.3129,39.0214 160.8659,39.8664 160.5069,40.6044 C160.1469,41.3434 159.8709,42.0114 159.6789,42.6064 C159.4869,43.2014 159.3909,43.7514 159.3909,44.2544 C159.3909,44.9334 159.6619,45.2254 160.2039,45.1304 C160.5779,45.0634 161.0689,44.7784 161.6749,44.2714 C162.2809,43.7654 163.0909,43.0104 164.1059,42.0024 L164.1059,42.9934 C161.4459,46.3504 159.4799,48.1404 158.2079,48.3644 C157.7649,48.4424 157.4069,48.3334 157.1359,48.0364 C156.8649,47.7394 156.7299,47.3194 156.7299,46.7774 C156.7299,46.4124 156.8059,45.9654 156.9589,45.4364 C157.1119,44.9064 157.3849,44.0994 157.7799,43.0144 C157.6409,43.1584 157.5109,43.2964 157.3879,43.4304 C157.2649,43.5664 157.1509,43.6894 157.0479,43.8024 C156.9449,43.9144 156.8329,44.0324 156.7149,44.1564 C156.5969,44.2804 156.4779,44.4074 156.3599,44.5364 L156.3599,43.5164 C157.3949,42.4674 158.6469,40.7234 160.1149,38.2864 C159.9669,38.3034 159.8289,38.3204 159.7009,38.3384 C159.5729,38.3554 159.4199,38.3794 159.2429,38.4104 C158.6609,38.5134 158.2279,38.6294 157.9419,38.7584 C157.8239,38.8084 157.7129,38.8604 157.6099,38.9134 C157.5059,38.9664 157.4339,38.9964 157.3949,39.0034 C157.3559,39.0104 157.3359,38.9834 157.3359,38.9254 C157.3359,38.5994 157.5379,38.0754 157.9419,37.3534 C158.2669,36.7454 158.5749,36.2814 158.8659,35.9654 C159.1559,35.6464 159.5109,35.4044 159.9299,35.2364 C160.3489,35.0694 160.9379,34.9184 161.6969,34.7844" id="Fill-11" fill="#008DE7" mask="url(#mask-2)"></path>
        </g>
    </g>
</svg>